# xmcd
#
# Track frame offsets:
# 150
# 18020
# 46615
# 72170
# 89000
# 109360
# 120680
# 157180
# 175384
# 191675
# 204742
#
# Disc length: 2930 seconds
#
#
# Revision: 0
# Processed by: cddbd v1.4PL0 Copyright (c) Steve Scherf et al.
# Submitted via: FreeRIP 2.11 
#
DISCID=990b700b
DTITLE=Blue Diamonds Feat. Grana' Louise, Joel Johnson - Hit The Big Time
DYEAR=1998
DGENRE=Blues
TTITLE0=Hit The Big Time
TTITLE1=Blue Diamonds
TTITLE2=Ain't Good Looking
TTITLE3=Raunchy Rita
TTITLE4=How Come My Bulldog Don't Bark
TTITLE5=Messin'
TTITLE6=Sugar in My Bowl
TTITLE7=I Want My Money Back
TTITLE8=Hip Shaken Woman
TTITLE9=Jug Or Not
TTITLE10=Won't Somebody Tell Me
EXTD=(Joel Johnson's Big Band)
EXTT0=
EXTT1=
EXTT2=
EXTT3=
EXTT4=
EXTT5=
EXTT6=
EXTT7=
EXTT8=
EXTT9=
EXTT10=
PLAYORDER=
